Coordinates
version=1
nRows=19
nColumns=34
inDegrees=yes

Units are S.I. units (second, meters, Newtons, ...)
If the header above contains a line with 'inDegrees', this indicates whether rotational values are in degrees (yes) or radians (no).

endheader
time	pelvis_tilt	pelvis_list	pelvis_rotation	pelvis_tx	pelvis_ty	pelvis_tz	hip_flexion_r	hip_adduction_r	hip_rotation_r	knee_angle_r	ankle_angle_r	subtalar_angle_r	mtp_angle_r	hip_flexion_l	hip_adduction_l	hip_rotation_l	knee_angle_l	ankle_angle_l	subtalar_angle_l	mtp_angle_l	lumbar_extension	lumbar_bending	lumbar_rotation	arm_flex_r	arm_add_r	arm_rot_r	elbow_flex_r	pro_sup_r	arm_flex_l	arm_add_l	arm_rot_l	elbow_flex_l	pro_sup_l
      5.01666670	     11.90980618	     -0.19856673	     -3.24057843	      1.95156108	      0.67774483	     -0.84290255	     68.78761520	      3.86970137	      6.81035007	     93.83209233	     11.03017752	     -7.28500044	      0.00000000	     68.20598205	     -2.81874717	     -2.32602694	     97.28179626	      4.19213870	    -20.62716702	      0.00000000	    -34.29453131	      3.05053983	    -23.21017570	     31.89475751	     -4.36901345	     62.90988976	     98.61875520	     85.80052008	     59.56590158	     -5.10972604	     84.47874407	    103.16927046	     61.49668814
      5.02500000	     11.86758922	     -0.30956854	     -3.31062159	      1.95183090	      0.67753996	     -0.84319248	     68.80606321	      3.96465735	      6.68977186	     93.81335448	     10.71666839	     -7.26455400	      0.00000000	     68.22762256	     -2.91698768	     -2.22695114	     97.21586568	      4.07850408	    -20.61830934	      0.00000000	    -34.18968095	      3.26319753	    -23.48476143	     31.40941307	     -3.96126968	     61.54623210	     98.13975313	     85.96456050	     59.41440776	     -5.27922987	     84.21417570	    102.93719809	     61.70538833
      5.03333330	     11.91250260	     -0.27169324	     -3.32095137	      1.95244382	      0.67953923	     -0.84348940	     68.78267283	      3.96710188	      6.66778580	     93.64635747	     10.49700588	     -7.11622524	      0.00000000	     68.26517195	     -2.91561985	     -2.30221973	     97.46392466	      3.69391563	    -20.53300200	      0.00000000	    -34.26861489	      3.27227632	    -23.67216863	     31.67101823	     -3.81186063	     61.08161779	     98.04484145	     86.00266781	     59.37410321	     -5.10966877	     84.19935649	    102.92462764	     61.76565665
      5.04166670	     12.07767082	     -0.29666921	     -3.10670868	      1.95363994	      0.67917515	     -0.84379696	     68.55175818	      3.80620441	      6.57812286	     93.55463623	     10.50056716	     -7.18678054	      0.00000000	     68.13394812	     -2.73084400	     -2.21580479	     97.61591952	      3.44449329	    -20.79227954	      0.00000000	    -34.33684552	      3.44890829	    -24.10650675	     31.47044314	     -3.34877425	     59.99669143	     97.50752089	     86.09977059	     59.36137216	     -5.16157508	     84.20136466	    102.71680966	     61.92929845
      5.05000000	     12.06175114	     -0.29870481	     -3.16854331	      1.95333965	      0.67942445	     -0.84434392	     68.57883607	      3.84933774	      6.57958144	     93.57963950	     10.49700652	     -7.17542772	      0.00000000	     68.08276919	     -2.71065377	     -2.24622455	     97.62234583	      3.44476373	    -20.80191640	      0.00000000	    -34.34301396	      3.52244309	    -24.22216670	     31.48283257	     -3.36716411	     59.92911922	     97.47851247	     86.10361187	     59.36255091	     -5.10120791	     84.21188217	    102.71876730	     61.93758534
      5.05833330	     11.99408063	     -0.31803479	     -3.21266528	      1.95320780	      0.67991917	     -0.84446150	     68.64767288	      3.88806579	      6.62176532	     93.56467373	     10.40146028	     -7.11638954	      0.00000000	     68.11110670	     -2.72644722	     -2.26330475	     97.54497103	      3.44896339	    -20.84096823	      0.00000000	    -34.43462817	      3.65521389	    -24.50185621	     31.70817369	     -3.34575547	     59.61640128	     97.35538060	     86.10200919	     59.40566080	     -4.98226992	     84.23043190	    102.70478757	     61.95550113
      5.06666670	     12.04669124	     -0.45195256	     -2.93153522	      1.95390239	      0.68005172	     -0.84466453	     68.47320943	      3.64172304	      6.37674593	     93.47232037	     10.33611489	     -7.22362632	      0.00000000	     68.10365888	     -2.48041102	     -1.99188146	     97.54098181	      3.35879706	    -21.06193144	      0.00000000	    -34.39736548	      3.87574540	    -25.08007875	     31.67686062	     -2.46879381	     58.19567342	     96.06957428	     86.15728510	     59.64708434	     -5.26556343	     84.54130066	    102.55253275	     62.13771548
      5.07500000	     11.83982120	     -0.50024260	     -3.11404104	      1.95164775	      0.67850214	     -0.84390078	     68.60236606	      3.86452036	      6.43500264	     93.44427811	     10.77514528	     -7.39490478	      0.00000000	     68.17755625	     -2.70053339	     -2.02913045	     97.27785769	      3.58687706	    -21.20495921	      0.00000000	    -34.42892851	      3.83418920	    -25.27088054	     31.93470128	     -2.38160351	     57.97893729	     96.00562077	     86.19432956	     59.64089951	     -5.16720643	     84.63407248	    102.66144158	     62.19307121
      5.08333330	     11.67768354	     -0.52487162	     -3.30151913	      1.95224721	      0.67853228	     -0.84406108	     68.72952121	      4.02021857	      6.48863822	     93.43827340	     11.13579397	     -7.43785209	      0.00000000	     68.31298389	     -2.90499143	     -2.06280941	     97.09505568	      3.78654529	    -21.28962919	      0.00000000	    -34.34654051	      3.82308403	    -25.36595695	     32.28350045	     -2.26160634	     57.68510851	     95.87942058	     86.23673472	     59.80364221	     -5.27092890	     84.72035777	    102.72277634	     62.25657987
      5.09166670	     11.64408102	     -0.52335122	     -3.34582713	      1.95109414	      0.67909492	     -0.84326572	     68.79929491	      4.06279259	      6.46394591	     93.45962072	     11.14773018	     -7.43295711	      0.00000000	     68.30540173	     -2.94362295	     -2.04060267	     96.92839840	      3.81930539	    -21.29399518	      0.00000000	    -34.36734099	      3.82730779	    -25.41007259	     32.32919880	     -2.24446773	     57.64296821	     95.86388782	     86.24026906	     59.82663004	     -5.26803917	     84.72779960	    102.72915067	     62.26266598
      5.10000000	     11.48434733	     -0.54031074	     -3.61353209	      1.95197709	      0.68063937	     -0.84277857	     68.94550216	      4.33521873	      6.45619314	     93.10366528	     10.78251690	     -7.21389698	      0.00000000	     68.43838596	     -3.23154245	     -2.10793410	     96.91419370	      3.75580224	    -21.21168035	      0.00000000	    -34.37026884	      3.70309851	    -25.64632149	     32.69624701	     -1.83890342	     57.36857316	     95.85747218	     86.29043211	     59.89689920	     -5.42726317	     84.94152535	    102.76891119	     62.33011270
      5.10833330	     11.43409745	     -0.54338425	     -3.63319999	      1.95312978	      0.67861516	     -0.84334716	     68.91582470	      4.32717492	      6.46097372	     93.12929738	     10.78095912	     -7.21676497	      0.00000000	     68.41836409	     -3.24025743	     -2.10167763	     96.90871082	      3.75795219	    -21.21097639	      0.00000000	    -34.36732878	      3.70419175	    -25.65169936	     32.70460200	     -1.83262933	     57.36352766	     95.85678141	     86.29135678	     59.90112923	     -5.42777427	     84.94361502	    102.77056520	     62.33123127
      5.11666670	     11.27345522	     -0.55140428	     -3.91446625	      1.95211225	      0.67847532	     -0.84298825	     69.10312443	      4.62494235	      6.57489878	     93.18378869	     10.96275507	     -7.44324807	      0.00000000	     68.56264068	     -3.52394774	     -2.21878623	     96.90916771	      3.92410833	    -21.20833932	      0.00000000	    -34.19992218	      3.62184465	    -25.90832368	     33.08225267	     -1.47149378	     57.17480214	     95.86040829	     86.35808507	     59.96578741	     -5.58634978	     85.13352036	    102.82727827	     62.39961060
      5.12500000	     11.21571328	     -0.54947733	     -3.97729376	      1.95233632	      0.67966508	     -0.84293857	     69.06592708	      4.66866403	      6.62235582	     93.11098555	     10.98673753	     -7.45764723	      0.00000000	     68.51133317	     -3.57063717	     -2.22467884	     96.79562929	      3.92407352	    -21.19217667	      0.00000000	    -34.12767909	      3.66466695	    -26.01423887	     33.08064168	     -1.45572676	     57.17137941	     95.84774827	     86.36851310	     59.95758416	     -5.53345676	     85.16979945	    102.85502541	     62.40973047
      5.13333330	     11.23447502	     -0.55395072	     -4.02736383	      1.95243480	      0.67894044	     -0.84310076	     69.02927205	      4.75276242	      6.72232562	     93.14046432	     11.04430044	     -7.48440703	      0.00000000	     68.51993519	     -3.66041019	     -2.29847864	     96.81736430	      3.95090310	    -21.19225338	      0.00000000	    -34.08942334	      3.76363968	    -26.17100527	     33.11441651	     -1.39781471	     57.15263247	     95.78809098	     86.38315069	     59.87239482	     -5.42126016	     85.28981203	    102.89564000	     62.42717110
      5.14166670	     11.09939712	     -0.46157282	     -4.19365630	      1.95204644	      0.67763399	     -0.84290432	     69.27602777	      4.88520494	      6.84802786	     93.24895831	     11.37209037	     -7.47145676	      0.00000000	     68.72108781	     -3.79432300	     -2.46097459	     96.90214467	      4.27208679	    -21.19549799	      0.00000000	    -33.84014032	      3.62200044	    -26.52498833	     33.36368215	     -0.81311579	     57.32220140	     94.77467966	     86.60174661	     60.07847450	     -5.69821922	     86.24423006	    103.19345775	     62.63633371
      5.15000000	     11.06739560	     -0.45835235	     -4.23663221	      1.95120089	      0.67781191	     -0.84256221	     69.38606802	      4.92895416	      6.84721928	     93.26199928	     11.29631315	     -7.40681970	      0.00000000	     68.82151864	     -3.84619074	     -2.50456291	     96.97514609	      4.25787232	    -21.19160810	      0.00000000	    -33.94252240	      3.62883644	    -26.73448916	     33.58096699	     -0.69767997	     57.25073171	     94.75084906	     86.62448203	     60.06196516	     -5.51412085	     86.28560807	    103.25522437	     62.65691869
      5.15833330	     11.00504631	     -0.43585528	     -4.32038502	      1.95262698	      0.67886609	     -0.84273614	     69.36810957	      4.94439912	      6.86461626	     93.16564430	     11.28824828	     -7.38906948	      0.00000000	     68.77548783	     -3.84173874	     -2.48786524	     96.91157959	      4.27089528	    -21.19828133	      0.00000000	    -33.87143302	      3.65585306	    -26.80274475	     33.66064327	     -0.61965328	     57.21814031	     94.75879943	     86.63154730	     60.10523800	     -5.46145255	     86.29772953	    103.28180799	     62.66372170
      5.16666670	     10.89586503	     -0.41166019	     -4.40726267	      1.95175098	      0.67834864	     -0.84244548	     69.50515131	      5.02294208	      6.90395423	     93.13210680	     11.06217237	     -7.32855105	      0.00000000	     68.85578312	     -3.92041861	     -2.55060626	     96.92634406	      4.28116395	    -21.18836697	      0.00000000	    -33.90219397	      3.68643057	    -27.03629988	     34.05020198	     -0.14170078	     57.07539717	     94.71877520	     86.67353260	     60.22958000	     -5.39597916	     86.51294828	    103.36707534	     62.70419111
